Coordinates
version=1
nRows=16
nColumns=22
inDegrees=yes

Units are S.I. units (second, meters, Newtons, ...)
If the header above contains a line with 'inDegrees', this indicates whether rotational values are in degrees (yes) or radians (no).

endheader
time	pelvis_tilt	pelvis_list	pelvis_rotation	pelvis_tx	pelvis_ty	pelvis_tz	hip_flexion_r	hip_adduction_r	hip_rotation_r	knee_angle_r	ankle_angle_r	subtalar_angle_r	hip_flexion_l	hip_adduction_l	hip_rotation_l	knee_angle_l	ankle_angle_l	subtalar_angle_l	lumbar_extension	lumbar_bending	lumbar_rotation
      0.01000000	     -0.74962923	     -2.64326194	     -1.54856499	     -0.92180755	      0.94419390	     -0.73831631	      1.48653116	      2.81802552	    -12.91087366	     -8.57929581	      9.38402825	     -0.61969765	      5.04695373	     -4.11160546	     -9.80591820	    -16.66027695	     12.20051791	     -1.33210092	     -6.74912081	     -0.62188182	     -6.38703779
      0.02000000	     -0.75012406	     -2.64561719	     -1.60832655	     -0.92185225	      0.94417944	     -0.73834156	      1.55007296	      2.80493366	    -12.88037008	     -8.68305048	      9.41268551	     -0.62833889	      5.04470354	     -4.11168223	     -9.85529503	    -16.67004055	     12.20805819	     -1.34381215	     -6.77808597	     -0.63889235	     -6.30806285
      0.03000000	     -0.75604805	     -2.64176241	     -1.68649266	     -0.92191390	      0.94415279	     -0.73835769	      1.63810426	      2.78185744	    -12.82918465	     -8.81718610	      9.44555986	     -0.64448524	      5.05255829	     -4.10577786	     -9.92094864	    -16.69074150	     12.22415454	     -1.35692870	     -6.80436869	     -0.66757360	     -6.21157577
      0.04000000	     -0.76322423	     -2.63893858	     -1.77353475	     -0.92198207	      0.94411690	     -0.73836591	      1.73902719	      2.75811220	    -12.76889712	     -8.97058154	      9.48630809	     -0.66491526	      5.06729025	     -4.10275559	     -9.99311812	    -16.72485221	     12.24176976	     -1.37227050	     -6.83119841	     -0.69795353	     -6.10750046
      0.05000000	     -0.76756716	     -2.63838233	     -1.86379468	     -0.92205645	      0.94408181	     -0.73837135	      1.84398914	      2.73557047	    -12.70335751	     -9.13662985	      9.52918840	     -0.68652202	      5.08619479	     -4.10335631	    -10.06408005	    -16.77284704	     12.26280633	     -1.38889099	     -6.86076193	     -0.72803456	     -6.00278005
      0.06000000	     -0.76639496	     -2.64232428	     -1.95323892	     -0.92213329	      0.94405084	     -0.73836768	      1.94688918	      2.71747684	    -12.63792713	     -9.30948588	      9.57179034	     -0.70602188	      5.10632696	     -4.11031428	    -10.12933516	    -16.83421079	     12.28681275	     -1.40566965	     -6.89671160	     -0.75522604	     -5.90075917
      0.07000000	     -0.76153309	     -2.64991340	     -2.04356745	     -0.92220570	      0.94402227	     -0.73835455	      2.04800529	      2.70262243	    -12.57266417	     -9.48759960	      9.61829958	     -0.72294862	      5.12907445	     -4.12315437	    -10.19454140	    -16.90882778	     12.31586356	     -1.42314824	     -6.93375137	     -0.77937758	     -5.79928092
      0.08000000	     -0.74891548	     -2.66307876	     -2.12527924	     -0.92226746	      0.94400356	     -0.73834148	      2.13795316	      2.69375153	    -12.51594670	     -9.66307490	      9.66040456	     -0.73420951	      5.14905472	     -4.14230590	    -10.24450129	    -16.99315324	     12.34697479	     -1.43828551	     -6.97916406	     -0.79769791	     -5.70743067
      0.09000000	     -0.72989752	     -2.67898475	     -2.20222420	     -0.92230880	      0.94399086	     -0.73832948	      2.22136099	      2.68612115	    -12.46432014	     -9.84347222	      9.70653146	     -0.73907266	      5.16624954	     -4.16558186	    -10.29166041	    -17.08631584	     12.38399664	     -1.45173903	     -7.02755686	     -0.81272066	     -5.61775348
      0.10000000	     -0.70143597	     -2.69747732	     -2.26855321	     -0.92232732	      0.94399197	     -0.73833271	      2.29442868	      2.67992977	    -12.42272421	    -10.02778246	      9.75119925	     -0.73622854	      5.17445763	     -4.18966709	    -10.32584644	    -17.18143329	     12.42206251	     -1.46149118	     -7.08571071	     -0.82282389	     -5.53459182
      0.11000000	     -0.66504520	     -2.71427985	     -2.33003040	     -0.92232166	      0.94399806	     -0.73835045	      2.36370898	      2.66869273	    -12.38533921	    -10.22558118	      9.80285066	     -0.72550549	      5.17445561	     -4.21116751	    -10.35668268	    -17.27848085	     12.46366395	     -1.46901917	     -7.15056036	     -0.83189945	     -5.45405050
      0.12000000	     -0.62140844	     -2.72734259	     -2.38563330	     -0.92229595	      0.94401106	     -0.73838792	      2.43285323	      2.65024249	    -12.35330808	    -10.44055892	      9.86143825	     -0.70833633	      5.16410921	     -4.22618756	    -10.38271395	    -17.37101184	     12.50544593	     -1.47530452	     -7.22371837	     -0.84140210	     -5.37685876
      0.13000000	     -0.57097373	     -2.73361690	     -2.43666488	     -0.92225256	      0.94402706	     -0.73844739	      2.50505457	      2.62073376	    -12.32432975	    -10.67723898	      9.92948404	     -0.68672781	      5.14234463	     -4.23092719	    -10.40560662	    -17.45556984	     12.54545377	     -1.48229387	     -7.30469992	     -0.85391796	     -5.30476670
      0.14000000	     -0.51355733	     -2.73243045	     -2.48456294	     -0.92219081	      0.94404302	     -0.73852406	      2.58198469	      2.58038224	    -12.30050862	    -10.93848635	     10.00597288	     -0.66498984	      5.10676664	     -4.22425652	    -10.42545951	    -17.52918092	     12.58277137	     -1.49105232	     -7.39331976	     -0.87070709	     -5.23759941
      0.15000000	     -0.45248204	     -2.71885271	     -2.53226476	     -0.92211121	      0.94405470	     -0.73861647	      2.66674274	      2.52369206	    -12.27471468	    -11.22187550	     10.09829577	     -0.64441720	      5.05925595	     -4.20136384	    -10.44877552	    -17.58866287	     12.61617855	     -1.50420275	     -7.48477241	     -0.89633596	     -5.18137410
      0.16000000	     -0.38744915	     -2.69757437	     -2.57250084	     -0.92202248	      0.94406444	     -0.73873863	      2.75678360	      2.45590390	    -12.25212975	    -11.52271839	     10.19371064	     -0.63194380	      5.00204871	     -4.16744381	    -10.47068950	    -17.63507685	     12.64817588	     -1.51822688	     -7.58179301	     -0.92377976	     -5.13209702
